<?xml version="1.0" standalone="no"?>
<!DOCTYPE svg PUBLIC "-//W3C//DTD SVG 20010904//EN"
 "http://www.w3.org/TR/2001/REC-SVG-20010904/DTD/svg10.dtd">
<svg version="1.0" xmlns="http://www.w3.org/2000/svg"
 width="576.000000pt" height="576.000000pt" viewBox="0 0 576.000000 576.000000"
 preserveAspectRatio="xMidYMid meet">
<metadata>
Created by potrace 1.11, written by Peter Selinger 2001-2013
</metadata>
<g transform="translate(0.000000,576.000000) scale(0.100000,-0.100000)"
fill="#000000" stroke="none">
<path d="M2700 5727 c-3 -3 -42 -8 -87 -11 -45 -3 -110 -10 -145 -15 -35 -6
-81 -13 -103 -16 -22 -4 -58 -11 -80 -17 -22 -5 -51 -12 -65 -15 -97 -17 -359
-102 -480 -155 -81 -36 -204 -97 -279 -138 -71 -39 -319 -200 -344 -223 -6 -7
-45 -38 -85 -71 -111 -90 -310 -290 -398 -401 -253 -320 -426 -652 -528 -1016
-42 -152 -63 -248 -81 -384 -3 -22 -8 -51 -11 -65 -9 -44 -12 -472 -4 -555 13
-133 21 -198 30 -240 5 -22 12 -56 15 -75 53 -308 217 -713 397 -983 l39 -57
-23 -33 c-12 -17 -26 -36 -31 -42 -4 -5 -48 -66 -98 -135 -49 -69 -98 -135
-109 -146 -11 -12 -20 -25 -20 -29 0 -8 -51 -77 -64 -86 -5 -4 -6 -14 -3 -23
4 -9 3 -16 -1 -16 -4 0 -7 -11 -7 -25 0 -14 5 -25 10 -25 7 0 7 -3 0 -8 -12
-9 -15 -52 -3 -52 5 0 4 -8 -1 -18 -6 -10 -6 -24 -1 -32 5 -8 7 -17 4 -21 -9
-16 31 -94 68 -131 21 -21 38 -36 38 -33 0 3 17 -2 38 -9 20 -8 55 -14 77 -12
42 2 125 33 125 46 0 4 11 18 25 31 23 22 52 91 47 112 -2 5 2 6 7 2 6 -3 8
-12 4 -20 -3 -8 -1 -15 5 -15 5 0 9 -9 8 -19 -2 -28 57 -95 101 -116 82 -39
166 -28 229 31 22 20 38 40 37 45 -2 5 2 9 8 9 6 0 9 7 5 15 -3 8 0 14 6 12 7
-1 12 6 13 15 0 17 14 26 16 11 1 -5 6 -17 12 -28 6 -11 10 -24 9 -28 -1 -4 5
-10 13 -13 8 -4 15 -11 15 -18 0 -11 15 -22 74 -55 51 -28 179 -17 201 18 10
17 32 13 73 -12 252 -159 688 -320 980 -363 20 -3 44 -7 52 -9 8 -2 42 -7 75
-11 33 -3 69 -8 80 -11 11 -3 121 -6 245 -8 264 -4 469 16 685 65 28 7 61 14
74 16 14 3 28 7 33 10 5 3 19 7 32 10 30 5 231 71 270 88 17 8 72 30 121 51
50 21 115 51 145 67 134 74 168 93 218 125 l53 35 20 -26 c11 -14 27 -26 35
-26 8 0 14 -4 14 -10 0 -5 9 -10 20 -10 11 0 20 -4 20 -9 0 -17 109 -9 149 11
41 20 104 82 94 92 -4 3 -1 6 4 6 6 0 14 19 18 42 6 33 9 38 17 25 5 -10 7
-21 3 -26 -3 -5 -1 -12 5 -16 5 -3 10 -14 10 -23 0 -21 70 -88 108 -104 71
-30 177 -10 223 43 9 10 19 16 23 12 3 -3 6 1 6 10 0 8 7 23 16 31 8 9 12 16
8 16 -3 0 -2 6 3 13 6 6 9 20 8 29 -2 10 1 21 6 24 5 3 8 2 7 -3 -1 -4 4 -24
11 -43 8 -19 14 -37 15 -40 6 -28 101 -104 118 -94 4 3 8 1 8 -3 0 -12 109
-13 116 -2 3 5 10 7 15 4 5 -4 9 -1 9 5 0 6 4 9 9 5 16 -10 86 70 109 124 11
28 16 51 11 51 -6 0 -7 6 -2 13 10 16 11 28 1 55 -5 14 -4 21 1 17 6 -3 9 4 8
15 -1 11 -5 20 -10 20 -6 0 -6 5 0 13 5 6 8 18 7 25 -1 6 -2 20 -3 30 0 9 -12
29 -25 43 -27 29 -51 70 -48 82 1 4 -2 7 -8 7 -5 0 -36 37 -69 83 -33 45 -64
87 -68 92 -5 6 -19 26 -33 45 -13 19 -29 38 -35 42 -5 4 -6 8 -1 8 4 0 -2 9
-15 20 -13 10 -21 19 -17 20 7 0 -11 25 -39 55 -7 8 -13 19 -13 25 0 6 -4 8
-10 5 -19 -12 -10 31 15 67 14 20 25 40 25 44 0 4 6 15 14 23 27 30 157 302
201 420 74 199 141 461 160 626 4 33 10 92 14 130 8 71 6 463 -2 500 -3 11 -8
52 -12 90 -3 39 -18 126 -31 195 -14 69 -27 136 -30 150 -2 14 -9 36 -14 50
-4 14 -23 72 -40 130 -18 58 -38 119 -46 135 -7 17 -25 59 -40 95 -14 36 -49
110 -76 165 -284 566 -760 1032 -1333 1305 -218 104 -539 206 -743 236 -20 3
-44 7 -52 9 -8 2 -42 7 -75 11 -33 3 -69 8 -80 11 -27 6 -469 15 -475 10z"/>
</g>
</svg>
